# AST/ASF file generated using VICON BodyLanguage
# -----------------------------------------------
:version 1.10
:name VICON
:units
  mass 1.0
  length 0.45
  angle deg
:documentation
   .ast/.asf automatically generated from VICON data using
   VICON BodyBuilder and BodyLanguage model FoxedUp or BRILLIANT.MOD
:root
   order TX TY TZ RX RY RZ
   axis XYZ
   position 0 0 0  
   orientation 0 0 0 
:bonedata
  begin
     id 1 
     name lhipjoint
     direction 0.603808 -0.713975 0.35448 
     length 2.2025 
     axis 0 0 0  XYZ
  end
  begin
     id 2 
     name lfemur
     direction 0.34202 -0.939693 0  
     length 6.55877  
     axis 0 0 20  XYZ
    dof rx ry rz
    limits (-160.0 20.0)
           (-70.0 70.0)
           (-60.0 70.0)
  end
  begin
     id 3 
     name ltibia
     direction 0.34202 -0.939693 0   
     length 6.80302   
     axis 0 0 20   XYZ
    dof rx
    limits (-10.0 170.0)
  end
  begin
     id 4 
     name lfoot
     direction 0.091848 -0.25235 0.963267   
     length 2.03446   
     axis -90 7.62852e-016 20   XYZ
    dof rx rz
    limits (-45.0 90.0)
           (-70.0 20.0)
  end
  begin
     id 5 
     name ltoes
     direction 1.53608e-011 -4.21925e-011 1   
     length 1.02033   
     axis -90 7.62852e-016 20   XYZ
    dof rx
    limits (-90.0 20.0)
  end
  begin
     id 6 
     name rhipjoint
     direction -0.587285 -0.724947 0.359928   
     length 2.16916  
     axis 0 0 0  XYZ 
  end
  begin
     id 7 
     name rfemur
     direction -0.34202 -0.939693 0   
     length 6.43173   
     axis 0 0 -20   XYZ
    dof rx ry rz
    limits (-160.0 20.0)
           (-70.0 70.0)
           (-70.0 60.0)
  end
  begin
     id 8 
     name rtibia
     direction -0.34202 -0.939693 0   
     length 6.70662   
     axis 0 0 -20   XYZ
    dof rx
    limits (-10.0 170.0)
 end
 begin
     id 9 
     name rfoot
     direction -0.11854 -0.325686 0.938018   
     length 2.0773  
     axis -90 -7.62852e-016 -20   XYZ
    dof rx rz
    limits (-45.0 90.0)
           (-20.0 70.0)
  end
  begin
     id 10 
     name rtoes
     direction -1.53547e-011 -4.21838e-011 1   
     length 1.03267   
     axis -90 -7.62852e-016 -20   XYZ
    dof rx
    limits (-90.0 20.0)
  end
  begin
     id 11 
     name lowerback
     direction -0.0286554 0.999539 0.0100613   
     length 2.08751   
     axis 0 0 0   XYZ
    dof rx ry rz
    limits (-20.0 45.0)
           (-30.0 30.0)
           (-30.0 30.0)
  end
  begin
     id 12 
     name upperback
     direction 0.0227093 0.999705 -0.00860929   
     length 2.08517   
     axis 0 0 0   XYZ
    dof rx ry rz
    limits (-20.0 45.0)
           (-30.0 30.0)
           (-30.0 30.0)
  end
  begin
     id 13 
     name thorax
     direction 0.0351627 0.999285 -0.013892   
     length 2.08412   
     axis 0 0 0   XYZ
    dof rx ry rz
    limits (-20.0 45.0)
           (-30.0 30.0)
           (-30.0 30.0)
  end
  begin
     id 14 
     name lowerneck
     direction -0.0696283 0.997344 0.0213922   
     length 1.44164   
     axis 0 0 0   XYZ
    dof rx ry rz
    limits (-20.0 45.0)
           (-30.0 30.0)
           (-30.0 30.0)
  end
  begin
     id 15 
     name upperneck
     direction 0.0531 0.990412 -0.127531   
     length 1.45022   
     axis 0 0 0   XYZ
    dof rx ry rz
    limits (-20.0 45.0)
           (-30.0 30.0)
           (-30.0 30.0)
  end
  begin
     id 16
     name head
     direction 0.0188154 0.998548 -0.0504727  
     length 1.45845  
     axis 0 0 0   XYZ
    dof rx ry rz
    limits (-20.0 45.0)
           (-30.0 30.0)
           (-30.0 30.0)
  end
  begin
     id 17 
     name lclavicle
     direction 0.961559 0.260051 0.088188  
     length 2.86057  
     axis 0 0 0   XYZ
    dof ry rz
    limits (-20.0 10.0)
           (0.0 20.0)
  end
  begin
     id 18 
     name lhumerus
     direction 1 -4.48959e-011 2.88185e-027   
     length 4.36901   
     axis 180 -30 -90   XYZ
    dof rx ry rz
    limits (-60.0 90.0)
           (-90.0 90.0)
           (-90.0 90.0)
  end
  begin
     id 19
     name lradius
     direction 1 -4.48965e-011 -3.92618e-028   
     length 3.21737   
     axis 180 -30 -90   XYZ
    dof rx
    limits (-10.0 170.0)
  end
  begin
     id 20
     name lwrist
     direction 1 -4.49037e-011 2.57246e-027   
     length 1.60869   
     axis -1.61769e-015 90 90   XYZ
    dof ry
    limits (-180.0 0.0)
 end
  begin
     id 21 
     name lhand
     direction 1 -4.48807e-011 5.12958e-027   
     length 0.564313   
     axis -3.27988e-015 90 90   XYZ
    dof rx rz
    limits (-90.0 90.0)
           (-45.0 45.0)
  end
  begin
     id 22 
     name lfingers
     direction 1 -4.48879e-011 1.02687e-026   
     length 0.454963   
     axis -6.5598e-015 90 90   XYZ
    dof rx
    limits (0.0 90.0)
  end
  begin
     id 23
     name lthumb
     direction 0.707107 -6.3475e-011 0.707107   
     length 0.653239   
     axis -90 45 2.19363e-014   XYZ
    dof rx rz
    limits (-45.0 45.0)
           (-45.0 45.0)
  end
  begin
     id 24 
     name rclavicle
     direction -0.954677 0.253915 0.155304   
     length 3.11497  
     axis 0 0 0   XYZ 
    dof ry rz
    limits (-10.0 20.0)
           (-20.0 0.0)
  end
  begin
     id 25 
     name rhumerus
     direction -1 -4.48958e-011 -8.20169e-028  
     length 4.34118   
     axis 180 30 90   XYZ
    dof rx ry rz
    limits (-90.0 60.0)
           (-90.0 90.0)
           (-90.0 90.0)
  end
  begin
     id 26 
     name rradius
     direction -1 -4.48978e-011 1.5676e-027   
     length 3.09531   
     axis 180 30 90   XYZ
    dof rx
    limits (-10.0 170.0)
  end
  begin
     id 27 
     name rwrist
     direction -1 -4.49001e-011 2.57123e-027   
     length 1.54765   
     axis -1.61769e-015 -90 -90   XYZ
    dof ry
    limits (-180.0 0.0)
  end
  begin
     id 28
     name rhand
     direction -1 -4.48847e-011 5.13225e-027   
     length 0.597446   
     axis -3.27988e-015 -90 -90   XYZ
    dof rx rz
    limits (-90.0 90.0)
           (-45.0 45.0)
  end
  begin
     id 29
     name rfingers
     direction -1 -4.49094e-011 1.02974e-026   
     length 0.481677   
     axis -6.5598e-015 -90 -90   XYZ
    dof rx
    limits (0.0 90.0)
  end
  begin
     id 30
     name rthumb
     direction -0.707107 -6.34859e-011 0.707107   
     length 0.691594   
     axis -90 -45 -2.19363e-014   XYZ
    dof rx rz
    limits (-45.0 45.0)
           (-45.0 45.0)
  end
:hierarchy
  begin
    root lhipjoint rhipjoint lowerback
    lhipjoint lfemur
    lfemur ltibia
    ltibia lfoot
    lfoot ltoes
    rhipjoint rfemur
    rfemur rtibia
    rtibia rfoot
    rfoot rtoes
    lowerback upperback
    upperback thorax
    thorax lowerneck lclavicle rclavicle
    lowerneck upperneck
    upperneck head
    lclavicle lhumerus
    lhumerus lradius
    lradius lwrist
    lwrist lhand lthumb
    lhand lfingers
    rclavicle rhumerus
    rhumerus rradius
    rradius rwrist
    rwrist rhand rthumb
    rhand rfingers
  end

#!OML:ASF E:\I on waltz\Acrobat_Osman\acrobat\cartwheel_test 2\Patient 1\Session 1\acrobat.ASF
:FULLY-SPECIFIED
:DEGREES
181
root 8.91002 15.7468 10.8691 7.46465 -71.5595 5.48329
lowerback -0.478279 5.40894 -0.210674
upperback -1.57946 7.22068 2.77995
thorax -1.74189 3.62467 2.87262
lowerneck -9.39551 -6.4232 -7.29017
upperneck 7.31181 -7.69956 0.41993
head 4.00914 -3.99129 0.796044
rclavicle -6.20208e-014 3.18055e-015
rhumerus -22.8688 7.53809 -77.01
rradius 72.0355
rwrist 3.04618
rhand -26.7256 37.1919
rfingers 7.12502
rthumb -0.155051 7.2122
lclavicle -6.20208e-014 3.18055e-015
lhumerus -53.9874 15.7956 42.6467
lradius 48.2342
lwrist 41.005
lhand -27.2759 52.9546
lfingers 7.12502
lthumb -0.686591 82.9332
rfemur 4.81079 -3.1528 15.0431
rtibia 32.8494
rfoot 0.341626 -26.5008
rtoes -4.72106
lfemur -32.3804 -1.31547 -14.8686
ltibia 37.9451
lfoot -12.8584 5.29678
ltoes -4.70833
182
root 8.73314 15.7311 10.9805 7.7765 -70.4928 5.01887
lowerback -0.709446 5.42662 -0.10586
upperback -1.62965 7.24121 2.75085
thorax -1.64875 3.63306 2.80681
lowerneck -9.28547 -6.54505 -7.29253
upperneck 6.79304 -7.87656 0.480976
head 4.27519 -4.07402 0.914355
rclavicle -6.69904e-014 -3.49861e-014
rhumerus -24.966 9.92564 -79.6838
rradius 75.1552
rwrist 3.76859
rhand -28.3402 35.9888
rfingers 7.12502
rthumb -1.71445 6.01591
lclavicle -6.69904e-014 -3.49861e-014
lhumerus -54.2928 16.2481 44.163
lradius 46.5123
lwrist 41.066
lhand -27.0236 53.5022
lfingers 7.12502
lthumb -0.442908 83.4815
rfemur 4.96039 -3.2591 14.8482
rtibia 33.9484
rfoot 2.34948 -25.2375
rtoes -5.40521
lfemur -31.6781 -1.61364 -15.0302
ltibia 38.0631
lfoot -13.8191 4.80836
ltoes -3.89773
183
root 8.5637 15.7246 11.0851 7.87393 -69.504 4.78
lowerback -0.870341 5.36472 -0.146887
upperback -1.68972 7.1575 2.76501
thorax -1.62332 3.5924 2.85794
lowerneck -9.19027 -6.5651 -7.33518
upperneck 6.75162 -7.92856 0.7522
head 4.26086 -4.08682 1.0128
rclavicle -9.28324e-014 9.54166e-015
rhumerus -26.2339 11.3487 -82.238
rradius 76.76
rwrist 3.90557
rhand -26.4483 36.5227
rfingers 7.12502
rthumb 0.11272 6.543
lclavicle -9.28324e-014 9.54166e-015
lhumerus -54.6226 16.8855 45.6757
lradius 44.3321
lwrist 40.2093
lhand -24.8647 53.8308
lfingers 7.12502
lthumb 1.64227 83.8042
rfemur 4.74748 -3.38893 14.5586
rtibia 35.4715
rfoot 3.47264 -22.5589
rtoes -6.17971
lfemur -30.9642 -1.85811 -15.2225
ltibia 38.1192
lfoot -14.6067 4.35503
ltoes -3.81083
184
root 8.40466 15.7183 11.1723 7.38952 -68.6706 5.06893
lowerback -0.863933 5.1697 -0.578232
upperback -1.71067 6.9009 2.86863
thorax -1.69919 3.47307 3.20075
lowerneck -9.0623 -6.43988 -7.44657
upperneck 7.10074 -7.79165 1.1353
head 3.92797 -4.00057 1.04483
rclavicle 3.61788e-014 -1.59028e-015
rhumerus -27.4145 13.0122 -84.5711
rradius 77.7451
rwrist 3.81192
rhand -26.3475 36.2961
rfingers 7.12502
rthumb 0.210159 6.31646
lclavicle 3.61788e-014 -1.59028e-015
lhumerus -55.1177 17.4952 47.6709
lradius 42.3411
lwrist 40.0796
lhand -23.9464 54.4174
lfingers 7.12502
lthumb 2.52915 84.3822
rfemur 4.1704 -3.36608 14.1072
rtibia 37.373
rfoot 3.41742 -18.0243
rtoes -8.65956
lfemur -30.1616 -2.01759 -15.5461
ltibia 38.1583
lfoot -15.3361 3.89826
ltoes -4.18651
185
root 8.25405 15.7118 11.2426 6.44641 -67.9375 5.70342
lowerback -0.635803 4.9165 -1.19439
upperback -1.68222 6.56828 2.93358
thorax -1.85458 3.31965 3.59067
lowerneck -8.93327 -6.26457 -7.43728
upperneck 7.17854 -7.59333 1.4178
head 3.93331 -3.88965 1.14598
rclavicle -9.44227e-014 -2.22639e-014
rhumerus -28.7021 14.7248 -86.7278
rradius 78.4781
rwrist 3.34908
rhand -25.6098 36.5839
rfingers 7.12502
rthumb 0.92263 6.6061
lclavicle -9.44227e-014 -2.22639e-014
lhumerus -55.451 18.0968 49.8131
lradius 40.0588
lwrist 39.0954
lhand -22.9535 54.3167
lfingers 7.12502
lthumb 3.48801 84.2679
rfemur 3.2336 -3.32472 13.5295
rtibia 39.4848
rfoot 2.64413 -12.4933
rtoes -12.8191
lfemur -29.2177 -2.05943 -15.9642
ltibia 38.1653
lfoot -16.0075 3.33467
ltoes -4.64987
186
root 8.11076 15.704 11.3062 5.25926 -67.2822 6.53593
lowerback -0.286781 4.67768 -1.75416
upperback -1.64048 6.25074 2.86817
thorax -2.03676 3.17261 3.81006
lowerneck -8.78685 -6.13778 -7.40198
upperneck 7.32952 -7.47642 1.82259
head 3.96487 -3.81297 1.27379
rclavicle 1.94809e-014 -3.18055e-015
rhumerus -30.1842 16.56 -88.7533
rradius 79.0536
rwrist 2.53017
rhand -25.7278 36.0954
rfingers 7.12502
rthumb 0.808628 6.1172
lclavicle 1.94809e-014 -3.18055e-015
lhumerus -55.2933 18.3442 52.3301
lradius 37.4633
lwrist 37.4808
lhand -22.375 54.1758
lfingers 7.12502
lthumb 4.04669 84.1171
rfemur 1.95612 -3.3826 12.8267
rtibia 41.7459
rfoot 1.27863 -7.42215
rtoes -16.9123
lfemur -28.2644 -2.0335 -16.4656
ltibia 38.2339
lfoot -16.6681 2.75501
ltoes -5.02618
187
root 7.97546 15.6954 11.3637 4.39296 -66.6835 7.00457
lowerback 0.104154 4.39938 -2.11581
upperback -1.5779 5.87616 2.84304
thorax -2.19492 2.99334 3.96562
lowerneck -8.74626 -6.03059 -7.45488
upperneck 7.6293 -7.37007 2.23774
head 4.06305 -3.74454 1.41229
rclavicle 7.17613e-014 4.13472e-014
rhumerus -31.7076 18.2352 -90.2105
rradius 78.9821
rwrist 2.618
rhand -24.8122 36.2297
rfingers 7.12502
rthumb 1.6929 6.25672
lclavicle 7.17613e-014 4.13472e-014
lhumerus -54.726 18.3586 55.3084
lradius 34.5616
lwrist 35.1601
lhand -22.0133 53.9605
lfingers 7.12502
lthumb 4.39593 83.8949
rfemur 0.368557 -3.53566 12.3183
rtibia 44.0404
rfoot -0.576411 -4.92435
rtoes -16.8678
lfemur -27.3593 -2.04676 -16.7978
ltibia 38.3675
lfoot -17.2588 2.30683
ltoes -5.0461
188
root 7.84549 15.6864 11.4104 4.01934 -66.1585 6.989
lowerback 0.457496 4.06414 -2.35255
upperback -1.51616 5.42414 2.88694
thorax -2.31679 2.77314 4.13393
lowerneck -8.74369 -5.90062 -7.46215
upperneck 7.9993 -7.2375 2.6315
head 4.18469 -3.66297 1.53771
rclavicle 7.87187e-014 3.33958e-014
rhumerus -33.3349 20.0647 -91.5843
rradius 78.8578
rwrist 2.28829
rhand -24.6304 35.9528
rfingers 7.12502
rthumb 1.86855 5.98127
lclavicle 7.87187e-014 3.33958e-014
lhumerus -53.89 18.1125 58.6788
lradius 31.7319
lwrist 32.2061
lhand -21.9901 53.669
lfingers 7.12502
lthumb 4.41835 83.6029
rfemur -1.57079 -3.83098 12.085
rtibia 46.2867
rfoot -2.57498 -3.69753
rtoes -18.9519
lfemur -26.531 -2.19649 -16.8416
ltibia 38.5403
lfoot -17.7251 2.05391
ltoes -4.80819
189
root 7.71657 15.6795 11.4487 3.6905 -65.8246 6.9325
lowerback 0.813635 3.73581 -2.57045
upperback -1.48994 4.97939 2.88794
thorax -2.46793 2.55698 4.25025
lowerneck -8.70536 -5.73194 -7.34924
upperneck 8.45057 -7.06786 2.94524
head 4.3157 -3.56431 1.6235
rclavicle -3.39922e-014 -2.22639e-014
rhumerus -34.7164 21.2811 -92.6695
rradius 78.0179
rwrist 2.54975
rhand -23.4495 35.9409
rfingers 7.12502
rthumb 3.00904 5.98234
lclavicle -3.39922e-014 -2.22639e-014
lhumerus -52.9172 16.9843 62.7342
lradius 29.5419
lwrist 29.3912
lhand -22.1413 53.0683
lfingers 7.12502
lthumb 4.27235 83.0052
rfemur -3.71659 -4.35328 11.7614
rtibia 48.3938
rfoot -5.09713 -3.23866
rtoes -19.8774
lfemur -25.677 -2.36449 -16.8243
ltibia 38.731
lfoot -18.1003 2.14909
ltoes -5.55481
